<?xml version="1.0" encoding="UTF-8" standalone="no"?>
<svg width="10px" height="6px" viewBox="0 0 10 6" version="1.1" xmlns="http://www.w3.org/2000/svg" xmlns:xlink="http://www.w3.org/1999/xlink" xmlns:sketch="http://www.bohemiancoding.com/sketch/ns">
    <!-- Generator: Sketch 3.4.4 (17249) - http://www.bohemiancoding.com/sketch -->
    <title>images/expanded</title>
    <desc>Created with Sketch.</desc>
    <defs></defs>
    <g id="Page-1" stroke="none" stroke-width="1" fill="none" fill-rule="evenodd" sketch:type="MSPage">
        <g id="images/expanded" sketch:type="MSArtboardGroup">
            <rect id="Bounds" sketch:type="MSShapeGroup" x="0" y="0" width="10" height="6"></rect>
            <g id="expanded" sketch:type="MSLayerGroup" fill="#666666">
                <path d="M9.727,1.793 C9.376,2.144 5.679,5.577 5.679,5.577 C5.491,5.764 5.246,5.857 5,5.857 C4.753,5.857 4.508,5.764 4.321,5.577 C4.321,5.577 0.624,2.145 0.273,1.793 C-0.078,1.442 -0.102,0.811 0.273,0.435 C0.649,0.06 1.172,0.031 1.632,0.435 L5,3.584 L8.368,0.436 C8.828,0.032 9.352,0.061 9.727,0.436 C10.103,0.811 10.079,1.443 9.727,1.793 L9.727,1.793 Z" id="Shape" sketch:type="MSShapeGroup"></path>
            </g>
        </g>
    </g>
</svg>