<svg xmlns="http://www.w3.org/2000/svg" width="20" height="20" viewBox="0 0 20 20">
  <g fill="none" fill-rule="evenodd">
    <rect width="20" height="20"/>
    <g transform="translate(1 2)">
      <path fill="#333" d="M17,4.9884 L17,0.9884 L15.256,2.9254 L15.255,2.9244 C11.48,0.4794 6.524,0.4714 2.743,2.9254 C2.743,2.9244 1,0.9884 1,0.9884 L1,4.9884 L5,4.9884 L3.469,3.6514 L3.468,3.6494 C6.835,1.5634 11.167,1.5694 14.53,3.6494 L14.532,3.6504 L13,4.9884"/>
      <path stroke="#333" d="M0 4.9884L3 7.9884M15 7.9884L18 4.9884"/>
      <path fill="#FFF" d="M5,8.9884 C5,8.4364 4.552,7.9884 4,7.9884 C3.448,7.9884 3,8.4364 3,8.9884 C3,9.5404 3.448,9.9884 4,9.9884 C4.552,9.9884 5,9.5404 5,8.9884"/>
      <path fill="#1C75BC" d="M4,6.9884 C2.897,6.9884 2,7.8854 2,8.9884 C2,10.0914 2.897,10.9884 4,10.9884 C5.103,10.9884 6,10.0914 6,8.9884 C6,7.8854 5.103,6.9884 4,6.9884 M4,7.9884 C4.552,7.9884 5,8.4364 5,8.9884 C5,9.5404 4.552,9.9884 4,9.9884 C3.448,9.9884 3,9.5404 3,8.9884 C3,8.4364 3.448,7.9884 4,7.9884"/>
      <path fill="#FFF" d="M15,8.9884 C15,8.4364 14.552,7.9884 14,7.9884 C13.448,7.9884 13,8.4364 13,8.9884 C13,9.5404 13.448,9.9884 14,9.9884 C14.552,9.9884 15,9.5404 15,8.9884"/>
      <path fill="#1C75BC" d="M14,6.9884 C12.897,6.9884 12,7.8854 12,8.9884 C12,10.0914 12.897,10.9884 14,10.9884 C15.103,10.9884 16,10.0914 16,8.9884 C16,7.8854 15.103,6.9884 14,6.9884 M14,7.9884 C14.552,7.9884 15,8.4364 15,8.9884 C15,9.5404 14.552,9.9884 14,9.9884 C13.448,9.9884 13,9.5404 13,8.9884 C13,8.4364 13.448,7.9884 14,7.9884"/>
      <path fill="#FFF" d="M10,13.9884 C10,13.4364 9.552,12.9884 9,12.9884 C8.448,12.9884 8,13.4364 8,13.9884 C8,14.5404 8.448,14.9884 9,14.9884 C9.552,14.9884 10,14.5404 10,13.9884"/>
      <path fill="#1C75BC" d="M9,11.9884 C7.897,11.9884 7,12.8854 7,13.9884 C7,15.0914 7.897,15.9884 9,15.9884 C10.103,15.9884 11,15.0914 11,13.9884 C11,12.8854 10.103,11.9884 9,11.9884 M9,12.9884 C9.552,12.9884 10,13.4364 10,13.9884 C10,14.5404 9.552,14.9884 9,14.9884 C8.448,14.9884 8,14.5404 8,13.9884 C8,13.4364 8.448,12.9884 9,12.9884"/>
      <g transform="translate(6 10)">
        <path fill="#333" d="M0,0.9884 L1,1.9884"/>
        <path stroke="#333" d="M0,0.9884 L1,1.9884"/>
      </g>
      <g transform="translate(11 10)">
        <path fill="#333" d="M1,0.9884 L0,1.9884"/>
        <path stroke="#333" d="M1,0.9884 L0,1.9884"/>
      </g>
    </g>
  </g>
</svg>
