<svg xmlns="http://www.w3.org/2000/svg" width="20" height="20" viewBox="0 0 20 20">
  <g fill="none" fill-rule="evenodd">
    <rect width="20" height="20"/>
    <g transform="translate(1)">
      <g transform="translate(0 3)">
        <rect width="16" height="14" x="1" y="1"/>
        <path fill="#333" d="M6.31175717,-7.1026518e-14 C6.63714219,0.264306921 6.9015726,0.593150795 7.09774462,1 L1.25,1 C1.059,1 1,1.118 1,1.25 L1,14.75 C1,14.953 1.112,15 1.25,15 L16.75,15 C16.888,15 17,14.9 17,14.75 L17,1.25 C17,1.088 16.912,1 16.75,1 L17,1 L10.1858808,1 C10.0561035,0.629669156 9.88869359,0.297611656 9.68836423,-3.88578059e-15 L17,0 C17.438,0 18,0.297 18,1 L18,15 C18,15.562 17.406,16 17,16 L1,16 C0.562,16 0,15.422 0,15 L0,1 C0,0.609 0.469,0 1,0 L6.31175717,0 Z"/>
        <path fill="#333" d="M4,13 L7,13 L7,14 L15,14 L15,12 L5,12 L5,10 L7,10 L7,11 L15,11 L15,9 L5,9 L5,7 L7,7 L7,8 L15,8 L15,6 C15,6 11.0100281,5.96991577 11,6 C10.9899719,6.03008423 9,8 9,8 L7,6 L5,6 L5,5 L6,5 L4,3 L3,3 L3,5 L4,5 L4,13 Z"/>
      </g>
      <path fill="#333" d="M2.646,5 L5.993,5 C5.834,1.492 3.144,1 0.25,1 L0,1 L0,0 L0.25,0 C4.443,0 8.332,0.613 8.495,5 L11.853,5 L7.25,9.604 L2.646,5 L2.646,5 Z" transform="translate(1.75 .75)"/>
    </g>
  </g>
</svg>
