<svg xmlns="http://www.w3.org/2000/svg" width="20" height="20" viewBox="0 0 20 20">
  <g fill="none" fill-rule="evenodd">
    <rect width="20" height="20"/>
    <g transform="translate(1 1)">
      <rect width="18" height="18" fill="#333"/>
      <path fill="#FFF" d="M1 10C5 10 5.5 12 9 12 10.5 12 12 12 13.5 10 15 8 16 8 17 8L17 17 1 17 1 10zM7 1L11 1 11 7C11 7.55228475 10.5522847 8 10 8L8 8C7.44771525 8 7 7.55228475 7 7L7 1z"/>
      <path fill="#FFF" d="M17,5 L11.1851852,10.8148148 C10.6268093,10.9125306 10.0473881,10.9681556 9.51037813,10.9896219 L17,3.5 L17,5 Z M17,6.5 L17,7 C16.8212298,7 16.6504492,7.00399485 16.4876584,7.01234163 L17,6.5 Z M10,9 L8.05358959,10.9464104 C7.59316912,10.8918269 7.18936206,10.798721 6.81808927,10.6819107 L8.5,9 L10,9 Z M12,7 L12,5.5 L16.5,1 L17,1 L17,2 L12,7 Z M7.17675238,8.82324762 L5.74135081,10.2586492 C5.40063438,10.1035976 5.06800122,9.93963791 4.71687535,9.78312465 L6.35793229,8.14206771 C6.56333266,8.43684039 6.8460747,8.67370237 7.17675238,8.82324762 Z M12,4 L12,2.5 L13.5,1 L15,1 L12,4 Z M6,7 L3.63220195,9.36779805 C3.26492622,9.25415024 2.86253721,9.15896991 2.40607573,9.09392427 L6,5.5 L6,7 Z M6,4 L1,9 L1,7.5 L6,2.5 L6,4 Z M6,1 L1,6 L1,4.5 L4.5,1 L6,1 Z M3,1 L1,3 L1,1 L3,1 Z"/>
    </g>
  </g>
</svg>
