<?xml version="1.0" encoding="utf-8"?>
<!-- Generator: Adobe Illustrator 19.1.0, SVG Export Plug-In . SVG Version: 6.00 Build 0)  -->
<svg version="1.1" id="Layer_1" xmlns="http://www.w3.org/2000/svg" xmlns:xlink="http://www.w3.org/1999/xlink" x="0px" y="0px"
	 viewBox="0 0 20 20" enable-background="new 0 0 20 20" xml:space="preserve">
<g>
	<g>
		<polygon fill="#FFFFFF" points="7,15 1,15 1,5 8,5 6.5,6.5 8.5,13.5 		"/>
	</g>
	<g>
		<polygon fill="#FFFFFF" points="19,15 12,15 13.5,13 12,6.5 13,5 19,5 		"/>
	</g>
	<polygon fill="#1C75BC" points="7,15 2,15 1,14 1,6 2,5 7.5,5 7,6 2,6 2,14 7.5,14 	"/>
	<polygon fill="#1C75BC" points="13,5 18,5 19,6 19,14 18,15 12.5,15 13,14 18,14 18,6 12.5,6 	"/>
	<polyline fill="none" stroke="#231F20" stroke-miterlimit="10" points="7.5,1.5 8.5,4.5 6.5,6.5 8.5,13.5 6.5,15.5 7.5,18.5 	"/>
	<polyline fill="none" stroke="#231F20" stroke-miterlimit="10" points="12.5,1.5 13.5,4.5 11.5,6.5 13.5,13.5 11.5,15.5 12.5,18.5 
			"/>
</g>
</svg>
