<svg xmlns="http://www.w3.org/2000/svg" width="20" height="20" viewBox="0 0 20 20">
  <g fill="none" fill-rule="evenodd">
    <rect width="20" height="20"/>
    <g transform="translate(1)">
      <polygon fill="#333" points="4.646 6.342 3.647 5.342 4.354 4.635 5.354 5.635"/>
      <polygon fill="#333" points="11.646 13.342 5.646 7.342 6.354 6.635 12.354 12.635"/>
      <polygon fill="#333" points="12.646 14.342 13.646 15.342 14.354 14.635 13.354 13.635"/>
      <polygon fill="#333" points="2.647 4.342 .646 2.342 1.353 1.635 3.353 3.635"/>
      <polygon fill="#333" points="16.646 18.342 14.646 16.342 15.354 15.635 17.354 17.635"/>
      <path fill="#1C75BC" d="M2,0.9884 C0.897,0.9884 0,1.8854 0,2.9884 C0,4.0914 0.897,4.9884 2,4.9884 C3.103,4.9884 4,4.0914 4,2.9884 C4,1.8854 3.103,0.9884 2,0.9884 M2,1.9884 C2.552,1.9884 3,2.4364 3,2.9884 C3,3.5404 2.552,3.9884 2,3.9884 C1.448,3.9884 1,3.5404 1,2.9884 C1,2.4364 1.448,1.9884 2,1.9884"/>
      <path fill="#FFF" d="M3,2.9884 C3,2.4364 2.552,1.9884 2,1.9884 C1.448,1.9884 1,2.4364 1,2.9884 C1,3.5404 1.448,3.9884 2,3.9884 C2.552,3.9884 3,3.5404 3,2.9884"/>
      <path fill="#1C75BC" d="M16,14.9884 C14.897,14.9884 14,15.8854 14,16.9884 C14,18.0914 14.897,18.9884 16,18.9884 C17.103,18.9884 18,18.0914 18,16.9884 C18,15.8854 17.103,14.9884 16,14.9884 M16,15.9884 C16.552,15.9884 17,16.4364 17,16.9884 C17,17.5404 16.552,17.9884 16,17.9884 C15.448,17.9884 15,17.5404 15,16.9884 C15,16.4364 15.448,15.9884 16,15.9884"/>
      <path fill="#FFF" d="M17,16.9884 C17,16.4364 16.552,15.9884 16,15.9884 C15.448,15.9884 15,16.4364 15,16.9884 C15,17.5404 15.448,17.9884 16,17.9884 C16.552,17.9884 17,17.5404 17,16.9884"/>
    </g>
  </g>
</svg>
