<svg width="20" height="20" viewBox="0 0 20 20" fill="none" xmlns="http://www.w3.org/2000/svg">
<path fill-rule="evenodd" clip-rule="evenodd" d="M7.2617 11.4454L1.5 17.2071L0.792893 16.5L6.55444 10.7385C6.74908 11.0117 6.98839 11.2509 7.2617 11.4454ZM11.4454 7.26168L17.2071 1.5L16.5 0.792892L10.7382 6.55466C11.0115 6.74925 11.2508 6.98848 11.4454 7.26168Z" fill="#1651B0"/>
<path fill-rule="evenodd" clip-rule="evenodd" d="M11 9C11 10.1046 10.1046 11 9 11C7.89543 11 7 10.1046 7 9C7 7.89543 7.89543 7 9 7C10.1046 7 11 7.89543 11 9ZM11.7078 10.2932C11.4121 10.9111 10.9111 11.4121 10.2932 11.7078L17.29 18.71L18.71 17.29L11.7078 10.2932Z" fill="#333333"/>
</svg>
