<svg xmlns="http://www.w3.org/2000/svg" width="20" height="20" viewBox="0 0 20 20" fill="none">
<g id="drawing/drawing-custom-table">
<path id="table" fill-rule="evenodd" clip-rule="evenodd" d="M0 3H4L5 4V7H8L9 8H8H7.49982H5V11H7.49984L7.49988 12H5V15H6.55451C6.65396 15.3604 6.87312 15.4096 7.0754 15.4551C7.29784 15.5051 7.49986 15.5505 7.49984 16H5V19H7.56772C7.75499 19.6667 8.26512 20 8.26512 20H0V3ZM16.9998 20H17V3H14L13 4L12 5V7H10L9 8H12H13H16H16.9998V20ZM13 4H16V7H13V4ZM4 7H1V4H4V7ZM4 11H1V8H4V11ZM4 15H1V12H4V15ZM4 19H1V16H4V19Z" fill="#333333" style="fill: var(--os-icon-outline-primary, #333333);"/>
<path id="arrow" d="M8 3C8 1 5 1 3 1V0C5 0 10 0 10 3H13L9 7L5 3H8Z" fill="#333333" style="fill: var(--os-icon-accent-tertiary, #333333);"/>
<g id="custom table" style="fill: var(--os-icon-outline-primary, #333333);">
<path d="M16.998 9.30096C16.998 9.12994 17.1182 9.00063 17.3558 9.00063C17.7375 9.00063 18.0527 9.1225 18.3005 9.36556C18.6397 9.68986 18.8089 10.0907 18.8089 10.5675V13.1426C18.8089 13.405 18.8889 13.6254 19.0488 13.8046C19.208 13.9837 19.4099 14.0822 19.6531 14.1016C20.1161 14.1519 20.1155 14.6872 19.6531 14.7375C19.4052 14.7568 19.202 14.856 19.0448 15.0345C18.8875 15.213 18.8089 15.4347 18.8089 15.6958V18.2709C18.8089 18.7197 18.6657 19.0926 18.3792 19.3909C18.0927 19.6893 17.7522 19.8384 17.3558 19.8384C17.1168 19.8384 16.998 19.7117 16.998 19.5301C16.998 19.3011 17.1917 19.2483 17.3844 19.2298C17.6229 19.2065 17.8195 19.1046 17.9754 18.9261C18.13 18.747 18.2079 18.5259 18.2079 18.2649V15.6964C18.2079 15.3961 18.2552 15.153 18.3512 14.9666C18.4471 14.7801 18.615 14.5963 18.8582 14.4152C18.615 14.2341 18.4531 14.0623 18.3718 13.9005C18.2619 13.6907 18.2073 13.4383 18.2073 13.142V10.5669C18.2073 10.2998 18.1286 10.0781 17.9714 9.90162C17.8142 9.72515 17.6183 9.62726 17.3844 9.60862C17.1918 9.59096 16.998 9.5296 16.998 9.30096Z"/>
<path fill-rule="evenodd" clip-rule="evenodd" d="M13.5068 10.4237L17.5044 12.4215V16.417L13.5068 18.4147L9.5091 16.417V12.4215L13.5068 10.4237ZM13.5066 11.0896L10.5477 12.5683L13.5066 14.047L16.4655 12.5683L13.5066 11.0896ZM13.1736 14.6251L10.1752 13.1267V16.084L13.1742 17.5827L13.1736 14.6251ZM16.838 13.1267L13.8399 14.6249L13.8405 17.582L16.838 16.084V13.1267Z"/>
<path fill-rule="evenodd" clip-rule="evenodd" d="M8.64292 14.938C8.56164 14.7762 8.39973 14.6044 8.15654 14.4232C8.39973 14.2421 8.56897 14.059 8.66491 13.8725C8.76086 13.6861 8.80816 13.443 8.80816 13.1427V10.5742C8.80816 10.3125 8.88545 10.0914 9.04003 9.91297C9.19593 9.73384 9.39249 9.63262 9.63101 9.60931C9.82388 9.59088 10.0175 9.53722 10.0175 9.30832C10.0175 9.12639 9.89888 9 9.65966 9C9.26323 9 8.92276 9.14917 8.63626 9.4475C8.34976 9.74583 8.17786 10.1187 8.17786 10.5676L8.20585 13.1427C8.20585 13.4037 8.12723 13.6255 7.96998 13.8039C7.81274 13.9824 7.60953 14.0816 7.36167 14.1009C6.89926 14.1512 6.89869 14.6865 7.36167 14.7369C7.60487 14.7562 7.80675 14.8547 7.96599 15.0339C8.12589 15.213 8.20585 15.4334 8.20585 15.6958V18.2709C8.20585 18.7477 8.37508 19.1486 8.71422 19.4729C8.96207 19.7159 9.27722 19.8378 9.659 19.8378C9.89688 19.8378 10.0168 19.7088 10.0168 19.5375C10.0168 19.3089 9.82308 19.2475 9.63035 19.2298C9.39648 19.2112 9.2006 19.1133 9.04336 18.9368C8.88612 18.7604 8.8075 18.5386 8.8075 18.2716V15.6965C8.8075 15.4001 8.75286 15.1477 8.64292 14.938Z"/>
</g>
</g>
</svg>