<svg xmlns="http://www.w3.org/2000/svg" width="20" height="20" viewBox="0 0 20 20">
  <g fill="none" fill-rule="evenodd">
    <rect width="20" height="20"/>
    <g fill="#333" transform="translate(2)">
      <path d="M9.117 9.011C8.937 8.499 8.751 7.97 8.559 7.428 8.366 6.885 8.18 6.372 8 5.889 7.821 6.372 7.634 6.885 7.442 7.428 7.249 7.97 7.063 8.499 6.883 9.011L9.117 9.011zM11.967 11.601C12.031 11.799 12.002 11.981 11.88 12.148 11.758 12.316 11.575 12.425 11.332 12.474 11.075 12.524 10.837 12.501 10.619 12.407 10.4 12.314 10.26 12.173 10.195 11.986 10.144 11.867 10.092 11.724 10.041 11.557 9.99 11.419 9.929 11.253 9.858 11.061 9.788 10.869 9.714 10.659 9.637 10.432L6.363 10.432C6.273 10.659 6.196 10.869 6.132 11.061 6.068 11.253 6.01 11.419 5.959 11.557 5.908 11.724 5.856 11.867 5.805 11.986 5.741 12.173 5.6 12.314 5.382 12.407 5.163 12.501 4.926 12.524 4.669 12.474 4.425 12.425 4.242 12.316 4.12 12.148 3.998 11.981 3.969 11.799 4.033 11.601L7.115 3.018C7.166 2.86 7.271 2.735 7.432 2.641 7.592 2.547 7.782 2.5 8 2.5 8.219 2.5 8.407 2.547 8.568 2.641 8.729 2.735 8.835 2.86 8.886 3.018L11.967 11.601zM7.5 16.4884L7.5 13.9884 8.5 13.9884 8.5 16.4884 12 19.9884 4 19.9884 7.5 16.4884z"/>
      <path d="M16,0 L15,0 L1,0 L0,0 L0,1 L0,14 L0,15 L1,15 L15,15 L16,15 L16,14 L16,1 L16,0 Z M15,14 L1,14 L1,1 L15,1 L15,14 Z"/>
    </g>
  </g>
</svg>
