<?xml version="1.0" encoding="utf-8"?>
<!-- Generator: Adobe Illustrator 18.1.0, SVG Export Plug-In . SVG Version: 6.00 Build 0)  -->
<svg version="1.1" id="Layer_1" xmlns="http://www.w3.org/2000/svg" xmlns:xlink="http://www.w3.org/1999/xlink" x="0px" y="0px"
	 viewBox="0 0 20 20" enable-background="new 0 0 20 20" xml:space="preserve">
<g>
	<g>
		<path fill="#333333" d="M17.975,8.326c0.048,0.148,0.027,0.285-0.065,0.411c-0.092,0.126-0.229,0.207-0.412,0.244
			c-0.193,0.037-0.371,0.02-0.534-0.05c-0.164-0.07-0.269-0.176-0.318-0.316c-0.038-0.089-0.077-0.196-0.116-0.322
			c-0.038-0.104-0.084-0.228-0.137-0.372c-0.053-0.144-0.108-0.301-0.166-0.472h-2.455c-0.067,0.171-0.125,0.328-0.173,0.472
			c-0.048,0.144-0.092,0.268-0.13,0.372c-0.038,0.126-0.077,0.233-0.115,0.322c-0.048,0.14-0.154,0.246-0.318,0.316
			c-0.164,0.07-0.342,0.087-0.534,0.05c-0.183-0.037-0.32-0.119-0.412-0.244c-0.092-0.126-0.114-0.262-0.065-0.411l2.311-6.437
			c0.038-0.118,0.117-0.212,0.238-0.283C14.694,1.535,14.836,1.5,15,1.5c0.164,0,0.306,0.035,0.426,0.106
			c0.12,0.07,0.2,0.165,0.238,0.283L17.975,8.326z M15.838,6.383c-0.135-0.384-0.274-0.78-0.419-1.187
			C15.275,4.789,15.135,4.404,15,4.042c-0.134,0.363-0.274,0.747-0.419,1.154c-0.144,0.407-0.284,0.803-0.419,1.187H15.838z"/>
	</g>
</g>
<polyline fill="none" stroke="#231F20" stroke-miterlimit="10" points="11.5,18 11.5,12.5 6.5,12.5 6.5,7.5 2.5,7.5 "/>
<path fill="none" stroke="#1C75BC" stroke-linecap="round" stroke-miterlimit="10" d="M12.095,2.277C11.428,2.096,10.725,2,10,2
	c-4.418,0-8,3.582-8,8s3.582,8,8,8s8-3.582,8-8"/>
</svg>
