<svg xmlns="http://www.w3.org/2000/svg" width="20" height="20" viewBox="0 0 20 20">
  <g fill="none" fill-rule="evenodd">
    <rect width="20" height="20"/>
    <g fill="#333" transform="translate(1)">
      <path d="M16,4.999 L14,2.999 C13.514,2.513 12.688,2 12,2 L2,2 C1.313,2 1,2.312 1,2.999 L1,17.999 C1,18.686 1.313,19 2,19 L16,18.999 C16.688,18.999 17,18.686 17,17.999 L17,6.999 C17,6.311 16.602,5.602 16.116,5.116 L16,4.999 L16,4.999 Z M13,6 L13,3.499 L15.5,5.999 L13,6 L13,6 Z M15.75,18 L2.25,18 C2.115,18 2,17.885 2,17.75 L2,3.25 C2,3.115 2.114,3 2.25,3 L12,2.999 L12,7 L16,6.999 L16,17.749 C16,17.884 15.886,18 15.75,18 Z"/>
      <polyline points="12 12 12 17 13 17 13 15 14 15 14 14 13 14 13 13 15 13 15 12 12 12"/>
      <path d="M5,12 C5.547,12 6,12.406 6,13 L6,16 C6,16.5 5.516,17 5,17 L3,17 L3,12 L5,12 L5,12 Z M4,16 L5,16 L5,13 L4,13 L4,16 Z"/>
      <polyline points="10.2 16.999 7 12.8 7 12 7.8 12.002 11 16.2 11 17 10.2 16.999"/>
      <polyline points="11 12 11 12.8 7.8 17 7 17 7 16.2 10.2 12 11 12"/>
      <path d="M3.396,5.75 L6.743,5.75 C6.584,2.242 3.895,1.75 1,1.75 L0.75,1.75 L0.75,0.75 L1,0.75 C5.193,0.75 9.082,1.363 9.245,5.75 L12.604,5.75 L8,10.354 L3.396,5.75"/>
    </g>
  </g>
</svg>
