<svg width="20" height="20" viewBox="0 0 20 20" fill="none" xmlns="http://www.w3.org/2000/svg">
<path fill-rule="evenodd" clip-rule="evenodd" d="M17.0374 2.30127C17.4837 1.88717 18.1745 1.90168 18.6034 2.33416L18.6686 2.39998C19.0975 2.83246 19.1119 3.52904 18.7012 3.97914L7.92604 15.5811C7.92366 15.9391 7.82072 16.3127 7.59681 16.694C6.92156 17.844 5.09631 18.5348 2.47781 17.4755C2.00986 17.2862 1.51658 17.041 1 16.7325C1 16.7325 1.70071 16.7185 2.38931 16.1928C2.64957 15.9941 2.90809 15.7223 3.1264 15.3505C3.78553 14.228 4.61863 12.9925 5.6489 13.0568L17.0374 2.30127ZM8.63607 13.2578L7.83607 12.4511L7.03608 13.2578L7.83607 14.0645L8.63607 13.2578ZM6.62332 16.1127C6.385 16.5186 5.4311 17.2106 3.56234 16.6572C3.75355 16.4514 3.93571 16.2114 4.09989 15.9318C4.50329 15.2448 4.87916 14.687 5.24361 14.378C5.41244 14.2349 5.51327 14.2035 5.55009 14.1972L5.55164 14.1969C5.56497 14.1944 5.61535 14.1849 5.73954 14.2591C6.28487 14.5847 6.59513 14.9402 6.72119 15.2329C6.82344 15.4703 6.84269 15.7392 6.62332 16.1127Z" fill="#333333"/>
</svg>
