<svg xmlns="http://www.w3.org/2000/svg" width="20" height="20" viewBox="0 0 20 20">
  <g fill="none" fill-rule="evenodd">
    <rect width="20" height="20"/>
    <g stroke="#333" transform="translate(0 2)">
      <polygon points="19.5 .488 .5 .488 .5 14.488 19.5 14.488"/>
      <path d="M14.5.9884L14.5 13.9884M11 7.4884C11 5.5554 9.433 3.9884 7.5 3.9884 5.567 3.9884 4 5.5554 4 7.4884 4 9.4214 5.567 10.9884 7.5 10.9884 9.433 10.9884 11 9.4214 11 7.4884L11 7.4884zM7.5 1.9884L7.5 12.9884M2 7.4884L13 7.4884M16 7.4884L18 7.4884M16 3.4884L18 3.4884M16 11.4884L18 11.4884"/>
    </g>
  </g>
</svg>
