<svg xmlns="http://www.w3.org/2000/svg" width="20" height="20" viewBox="0 0 20 20">
  <g fill="none" fill-rule="evenodd">
    <rect width="20" height="20"/>
    <g fill="#333" transform="translate(0 5)">
      <path d="M14,7.96115272 L14,1 L10,1 L10,0 L19,0 L19,1 L15,1 L15,7.96153846 L17.75,5 L18.5,5.65999985 L14.5,10 L10.5,5.65850461 L11.2523266,5 L14,7.96115272 Z"/>
      <path fill-rule="nonzero" d="M1,5 C1,2.790861 2.790861,1 5,1 C7.209139,1 9,2.790861 9,5 C9,7.209139 7.209139,9 5,9 C2.790861,9 1,7.209139 1,5 Z M8,5 C8,3.34314575 6.65685425,2 5,2 C3.34314575,2 2,3.34314575 2,5 C2,6.65685425 3.34314575,8 5,8 C6.65685425,8 8,6.65685425 8,5 Z"/>
      <polygon points="9.354 1.354 8.646 .646 .646 8.646 1.354 9.354"/>
    </g>
  </g>
</svg>
