<svg width="20" height="20" viewBox="0 0 20 20" fill="none" xmlns="http://www.w3.org/2000/svg">
<path fill-rule="evenodd" clip-rule="evenodd" d="M15.5522 0H16.8955L6.89554 10H5.55216L7.48884 8.06332C6.53785 7.379 5.75703 6.46484 5.22369 5.4C6.41273 3.02557 8.83252 1.4 11.624 1.4C12.385 1.4 13.1187 1.52116 13.807 1.74521L15.5522 0ZM10.8023 7.61824C11.0644 7.68795 11.3399 7.72509 11.624 7.72509C13.3911 7.72509 14.824 6.29222 14.824 4.52509C14.824 4.24077 14.7868 3.96558 14.7171 3.70348L10.8023 7.61824ZM15.7156 2.70472C16.686 3.3927 17.4827 4.31842 18.0239 5.3997C16.8349 7.77413 14.4154 9.3997 11.6239 9.3997C10.8419 9.3997 10.0888 9.27215 9.38404 9.03623L10.3585 8.0618C10.7719 8.15312 11.1956 8.1997 11.6239 8.1997C12.7433 8.1997 13.8346 7.88128 14.7795 7.27854C15.5314 6.79879 16.1688 6.15617 16.6474 5.3997C16.1843 4.66758 15.5722 4.04262 14.8519 3.56835L15.7156 2.70472ZM8.46813 3.52124C7.71622 4.001 7.07878 4.64361 6.60024 5.40008C7.05382 6.11698 7.64986 6.73098 8.35062 7.20161L9.08243 6.46949C8.66934 5.93068 8.42368 5.2567 8.42368 4.5252C8.42368 4.14042 8.49187 3.77177 8.61638 3.43022C8.56676 3.45975 8.51714 3.49019 8.46813 3.52124ZM10.424 2.92472C11.0243 2.92472 11.522 3.36612 11.61 3.94207L10.241 5.31102C9.66507 5.22304 9.22398 4.72533 9.22398 4.12502C9.22398 3.46201 9.76096 2.92472 10.424 2.92472ZM3.88159 5.40006L3.89551 5.4278C3.48608 6.10584 3.25049 6.90063 3.25049 7.75041C3.25049 10.2355 5.26529 12.2503 7.75033 12.2503C9.2787 12.2503 10.6292 11.4882 11.4425 10.3233C12.3697 10.3294 13.2702 10.2179 14.1247 9.97301C13.8464 10.7708 13.4226 11.5003 12.8852 12.1299C13.266 12.1125 13.7374 12.2947 14.1784 12.6913L18.442 16.3176C19.1321 16.9386 19.1901 17.9528 18.5713 18.5715C17.9526 19.1903 16.9385 19.1318 16.3175 18.4422L12.6912 14.1785C12.2946 13.7375 12.1124 13.2662 12.1298 12.8853C10.9508 13.8916 9.42146 14.4997 7.74977 14.4997C4.02221 14.4997 1 11.4774 1 7.74984C1 4.02224 4.02221 1 7.74977 1C7.91096 1 8.07084 1.00565 8.22921 1.01677C6.3874 1.90758 4.84718 3.47185 3.88159 5.40006Z" fill="#333333"/>
</svg>
