<?xml version="1.0" encoding="utf-8"?>
<!-- Generator: Adobe Illustrator 18.1.0, SVG Export Plug-In . SVG Version: 6.00 Build 0)  -->
<svg version="1.1" id="Layer_1" xmlns="http://www.w3.org/2000/svg" xmlns:xlink="http://www.w3.org/1999/xlink" x="0px" y="0px"
	 viewBox="0 0 20 20" enable-background="new 0 0 20 20" xml:space="preserve">
<g>
	<g>
		<g>
			<g>
				
					<line fill="none" stroke="#333333" stroke-width="1.5" stroke-linecap="round" stroke-miterlimit="10" x1="2.5" y1="17.5" x2="17.5" y2="2.5"/>
				<g>
					<g>
						<circle fill="#FFFFFF" cx="2.5" cy="17.5" r="1.692"/>
						<path fill="#333333" d="M3.855,18.855c0.747-0.747,0.747-1.964,0-2.711s-1.964-0.747-2.711,0
							c-0.747,0.747-0.747,1.964,0,2.711C1.892,19.603,3.108,19.603,3.855,18.855C4.603,18.108,3.108,19.603,3.855,18.855z
							 M1.463,16.463c0.572-0.572,1.502-0.572,2.074,0c0.572,0.572,0.572,1.502,0,2.074c-0.572,0.572-1.502,0.572-2.075,0
							S0.891,17.035,1.463,16.463C2.035,15.891,0.891,17.035,1.463,16.463z"/>
					</g>
				</g>
				<g>
					<g>
						<circle fill="#FFFFFF" cx="17.5" cy="2.5" r="1.692"/>
						<path fill="#333333" d="M18.855,3.855c-0.747,0.747-1.964,0.747-2.711,0s-0.747-1.964,0-2.711
							c0.747-0.747,1.964-0.747,2.711,0S19.603,3.108,18.855,3.855C18.108,4.603,19.603,3.108,18.855,3.855z M16.463,1.463
							c-0.572,0.572-0.572,1.502,0,2.074c0.572,0.572,1.502,0.572,2.074,0c0.572-0.572,0.572-1.502,0-2.075
							S17.035,0.891,16.463,1.463C15.891,2.035,17.035,0.891,16.463,1.463z"/>
					</g>
				</g>
			</g>
		</g>
	</g>
</g>
</svg>
