<?xml version="1.0" encoding="UTF-8"?>
<svg width="20px" height="20px" viewBox="0 0 20 20" version="1.1" xmlns="http://www.w3.org/2000/svg" xmlns:xlink="http://www.w3.org/1999/xlink">
    <!-- Generator: Sketch 55.2 (78181) - https://sketchapp.com -->
    <title>general/measure-button</title>
    <desc>Created with Sketch.</desc>
    <g id="general/measure-button" stroke="none" stroke-width="1" fill="none" fill-rule="evenodd">
        <path d="M14.6060606,14.7688551 C16.0161235,14.4047591 17.030303,13.61764 17.030303,12.4581446 L17.030303,9.88285423 C16.0634656,10.8301423 14.466241,11.4456525 12.6666667,11.4965762 L12.6666667,11.5 L2.96969697,11.5 L2.96969697,15 L3.93939394,15 L3.93939394,14 L4.42424242,14 L4.42424242,15 L5.39393939,15 L5.39393939,13 L5.87878788,13 L5.87878788,15 L6.84848485,15 L6.84848485,14 L7.33333333,14 L7.33333333,15 L8.3030303,15 L8.3030303,13 L8.78787879,13 L8.78787879,15 L9.75757576,15 L9.75757576,14 L10.2424242,14 L10.2424242,15 L11.2121212,15 L11.2121212,13 L11.6969697,13 L11.6969697,15 L12.6666667,15 L12.6666667,14 L13.1515152,14 L13.1515152,14.9867491 C13.485234,14.968341 13.8103361,14.930827 14.1212121,14.8746666 L14.1212121,13 L14.6060606,13 L14.6060606,14.7688551 Z M7.81818182,9.88285423 L7.81818182,10.5 L8.61033708,10.5 C8.31439221,10.3151941 8.04841383,10.108431 7.81818182,9.88285423 Z M6.86016324,7.5 C7.04883386,5.4905708 9.49905078,4 12.4242424,4 C15.4695051,4 18,5.61544986 18,7.75 C18,7.81204171 17.9978622,7.87364489 17.9936362,7.93478261 L18,7.93478261 L18,12.4581446 C18,14.8907812 15.4679583,16 12.6666667,16 L2,16 L2,10.5 L6.84848485,10.5 L6.84848485,7.5 L6.86016324,7.5 Z M12.4242424,10.5 C15.0022426,10.5 17.030303,9.20530074 17.030303,7.75 C17.030303,6.29469926 15.0022426,5 12.4242424,5 C9.8462422,5 7.81818182,6.29469926 7.81818182,7.75 C7.81818182,9.20530074 9.8462422,10.5 12.4242424,10.5 Z M12.5858586,9.5 C10.7834052,9.5 9.27272727,8.83233433 9.27272727,7.75 C9.27272727,6.66766567 10.7834052,6 12.5858586,6 C14.388312,6 15.8989899,6.66766567 15.8989899,7.75 C15.8989899,8.83233433 14.388312,9.5 12.5858586,9.5 Z M12.5858586,8.5 C13.9074401,8.5 14.9292929,8.04837755 14.9292929,7.75 C14.9292929,7.45162245 13.9074401,7 12.5858586,7 C11.2642771,7 10.2424242,7.45162245 10.2424242,7.75 C10.2424242,8.04837755 11.2642771,8.5 12.5858586,8.5 Z" id="lui-measure" fill="#333333" fill-rule="nonzero"></path>
    </g>
</svg>