<?xml version="1.0" encoding="UTF-8" standalone="no"?>
<svg width="20px" height="20px" viewBox="0 0 20 20" version="1.1" xmlns="http://www.w3.org/2000/svg" xmlns:xlink="http://www.w3.org/1999/xlink">
    <!-- Generator: Sketch 39.1 (31720) - http://www.bohemiancoding.com/sketch -->
    <title>qtresources/icons/view/jogged-section-view</title>
    <desc>Created with Sketch.</desc>
    <defs></defs>
    <g id="Page-1" stroke="none" stroke-width="1" fill="none" fill-rule="evenodd">
        <g id="qtresources/icons/view/jogged-section-view">
            <rect id="Bounds" x="0" y="0" width="20" height="20"></rect>
            <g id="jogged-section" transform="translate(7.000000, 1.000000)" fill="#333333">
                <path d="M5,5 L8,2.5 L5,0 L5,5 Z M2,2 L5,2 L5,3 L3,3 L3,5 L2,5 L2,2 Z" id="Combined-Shape"></path>
                <polygon id="Rectangle-22" points="0 8 2 8 2 6 3 6 3 9 1 9 1 12 0 12"></polygon>
                <path d="M0,13 L1,13 L1,15 L3,15 L3,16 L0,16 L0,13 Z M3,18 L6,15.5 L3,13 L3,18 Z" id="Combined-Shape"></path>
            </g>
        </g>
    </g>
</svg>