<svg xmlns="http://www.w3.org/2000/svg" width="20" height="20" viewBox="0 0 20 20">
  <g fill="none" fill-rule="evenodd">
    <rect width="20" height="20"/>
    <g transform="translate(1)">
      <path stroke="#333" d="M16.5 7.9884L16.5 14.9884M9.5 7.9884L9.5 14.9884M1.5 7.9884L1.5 16.9884"/>
      <path stroke="#1C75BC" stroke-linecap="square" d="M1.5 18.4884L9.5 18.4884M9.5 17.9884L9.5 16.9884M9.5 16.4884L16.5 16.4884"/>
      <path fill="#333" d="M1.5 1.9884C1.136 1.9884 1 2.1244 1 2.4884L1 4.4884C1 4.8524 1.136 4.9884 1.5 4.9884 1.864 4.9884 2 4.8524 2 4.4884L2 2.4884C2 2.1244 1.864 1.9884 1.5 1.9884M1.5 5.9884C.589 5.9884 0 5.3994 0 4.4884L0 2.4884C0 1.5774.589.9884 1.5.9884 2.411.9884 3 1.5774 3 2.4884L3 4.4884C3 5.3994 2.411 5.9884 1.5 5.9884M18 5.9884L15 5.9884 15 2.9884 16.5 2.9884C16.775 2.9884 17 2.7634 17 2.4884 17 2.2134 16.775 1.9884 16.5 1.9884L15 1.9884 15 .9884 16.5.9884C17.327.9884 18 1.6614 18 2.4884 18 3.3154 17.327 3.9884 16.5 3.9884L16 3.9884 16 4.9884 18 4.9884 18 5.9884z"/>
      <polygon fill="#333" points="10 5.988 9 5.988 9 1.988 8 1.988 8 .988 10 .988"/>
    </g>
  </g>
</svg>
