<svg width="20" height="20" viewBox="0 0 20 20" fill="none" xmlns="http://www.w3.org/2000/svg">
<path fill-rule="evenodd" clip-rule="evenodd" d="M11.0013 17.009V10.991L13.7043 13.69C14.6553 12.737 15.2463 11.424 15.2503 9.975C15.2583 7.076 12.9153 4.732 10.0153 4.741C7.11628 4.75 4.75828 7.107 4.75028 10.007C4.74328 12.257 6.15428 14.173 8.14228 14.914L7.52228 16.554C4.87228 15.567 2.99128 13.013 3.00028 10.012C3.01128 6.146 6.15528 3.002 10.0213 2.991C13.8863 2.98 17.0113 6.104 17.0003 9.97C16.9943 11.904 16.2053 13.657 14.9333 14.928L16.9793 16.97L11.0013 17.009Z" fill="#333333"/>
</svg>
