<?xml version="1.0" encoding="UTF-8"?>
<svg width="20px" height="20px" viewBox="0 0 20 20" version="1.1" xmlns="http://www.w3.org/2000/svg" xmlns:xlink="http://www.w3.org/1999/xlink">
    <!-- Generator: Sketch 55.2 (78181) - https://sketchapp.com -->
    <title>drawing/drawing-revision-table</title>
    <desc>Created with Sketch.</desc>
    <g id="drawing/drawing-revision-table" stroke="none" stroke-width="1" fill="none" fill-rule="evenodd">
        <g id="insert-revision-table" transform="translate(0.000000, 0.000000)" fill="#333333">
            <path d="M6.5,20 L0,20 L0,3 L4,3 L5,4 L5,7 L8,7 L9,8 L10,7 L12,7 L12,5 L14,3 L17,3 L17,11 L16,9 L16,8 L15.5,8 L15,7 L16,7 L16,4 L13,4 L13,7 L12,9 L12,8 L9,8 L9,11 L11,11 L10.5,12 L9,12 L9,15 L8,17 L8,16 L5,16 L5,19 L7,19 L6.5,20 Z M4,7 L4,4 L1,4 L1,7 L4,7 Z M4,11 L4,8 L1,8 L1,11 L4,11 Z M8,11 L8,8 L5,8 L5,11 L8,11 Z M4,15 L4,12 L1,12 L1,15 L4,15 Z M8,15 L8,12 L5,12 L5,15 L8,15 Z M4,19 L4,16 L1,16 L1,19 L4,19 Z M8,3 C8,1 5,1 3,1 L3,1.99840144e-14 C5,-2.24590427e-14 10,1.59872116e-14 10,3 L13,3 L9,7 L5,3 L8,3 Z M14,8 L20,20 L8,20 L14,8 Z"></path>
        </g>
    </g>
</svg>