<?xml version="1.0" encoding="utf-8"?>
<!-- Generator: Adobe Illustrator 18.1.0, SVG Export Plug-In . SVG Version: 6.00 Build 0)  -->
<svg version="1.1" id="Layer_1" xmlns="http://www.w3.org/2000/svg" xmlns:xlink="http://www.w3.org/1999/xlink" x="0px" y="0px"
	 viewBox="0 0 20 20" enable-background="new 0 0 20 20" xml:space="preserve">
<g>
	<g>
		<rect x="5.5" y="2.5" fill="#FFFFFF" width="13" height="11"/>
		<path fill="#333333" d="M18,3v10H6V3H18 M19,2h-1H6H5v1v10v1h1h12h1v-1V3V2L19,2z"/>
	</g>
	<g>
		<rect x="13.5" y="9.5" fill="#FFFFFF" width="5" height="4"/>
		<path fill="#333333" d="M18,10v3h-4v-3H18 M19,9h-1h-4h-1v1v3v1h1h4h1v-1v-3V9L19,9z"/>
	</g>
</g>
<g>
	<g>
		<rect x="3.5" y="4.5" fill="#FFFFFF" width="13" height="11"/>
		<path fill="#333333" d="M16,5v10H4V5H16 M17,4h-1H4H3v1v10v1h1h12h1v-1V5V4L17,4z"/>
	</g>
	<g>
		<rect x="11.5" y="11.5" fill="#FFFFFF" width="5" height="4"/>
		<path fill="#333333" d="M16,12v3h-4v-3H16 M17,11h-1h-4h-1v1v3v1h1h4h1v-1v-3V11L17,11z"/>
	</g>
</g>
<g>
	<g>
		<rect x="1.5" y="6.5" fill="#FFFFFF" width="13" height="11"/>
		<path fill="#333333" d="M14,7v10H2V7H14 M15,6h-1H2H1v1v10v1h1h12h1v-1V7V6L15,6z"/>
	</g>
	<g>
		<rect x="9.5" y="13.5" fill="#FFFFFF" width="5" height="4"/>
		<path fill="#333333" d="M14,14v3h-4v-3H14 M15,13h-1h-4H9v1v3v1h1h4h1v-1v-3V13L15,13z"/>
	</g>
</g>
</svg>
