<?xml version="1.0" encoding="utf-8"?>
<!-- Generator: Adobe Illustrator 18.1.0, SVG Export Plug-In . SVG Version: 6.00 Build 0)  -->
<svg version="1.1" id="Layer_1" xmlns="http://www.w3.org/2000/svg" xmlns:xlink="http://www.w3.org/1999/xlink" x="0px" y="0px"
	 viewBox="0 0 20 20" enable-background="new 0 0 20 20" xml:space="preserve">
<g>
	<g>
		<path fill="#333333" d="M15.295,15.13c0.086,0.268,0.048,0.514-0.115,0.74s-0.407,0.373-0.732,0.44
			c-0.343,0.066-0.66,0.036-0.951-0.091c-0.292-0.126-0.479-0.316-0.565-0.569c-0.068-0.16-0.138-0.354-0.206-0.58
			c-0.068-0.187-0.149-0.41-0.244-0.67c-0.094-0.26-0.192-0.543-0.295-0.851h-4.37c-0.12,0.308-0.223,0.591-0.309,0.851
			s-0.163,0.483-0.231,0.67c-0.068,0.227-0.137,0.42-0.205,0.58c-0.086,0.253-0.274,0.443-0.565,0.569
			c-0.292,0.127-0.608,0.157-0.951,0.091c-0.326-0.067-0.57-0.214-0.732-0.44c-0.163-0.227-0.202-0.473-0.116-0.74l4.113-11.6
			c0.068-0.213,0.209-0.383,0.424-0.51C9.456,2.894,9.709,2.83,10,2.83c0.292,0,0.544,0.063,0.759,0.19
			c0.214,0.127,0.355,0.297,0.424,0.51L15.295,15.13z M11.491,11.63c-0.24-0.692-0.488-1.406-0.745-2.14S10.24,8.063,10,7.41
			C9.761,8.063,9.512,8.757,9.255,9.49s-0.506,1.447-0.745,2.14H11.491z"/>
	</g>
</g>
</svg>
