<svg width="20" height="20" viewBox="0 0 20 20" fill="none" xmlns="http://www.w3.org/2000/svg">
<path fill-rule="evenodd" clip-rule="evenodd" d="M19 10C19 14.9706 14.9706 19 10 19C5.02944 19 1 14.9706 1 10C1 5.02944 5.02944 1 10 1C14.9706 1 19 5.02944 19 10ZM10 18C14.4183 18 18 14.4183 18 10C18 5.58172 14.4183 2 10 2C5.58172 2 2 5.58172 2 10C2 14.4183 5.58172 18 10 18Z" fill="#333333"/>
<path fill-rule="evenodd" clip-rule="evenodd" d="M5 1C3.895 1 3 1.895 3 3C3 4.105 3.895 5 5 5C6.105 5 7 4.105 7 3C7 1.895 6.105 1 5 1ZM5 15C3.895 15 3 15.895 3 17C3 18.105 3.895 19 5 19C6.105 19 7 18.105 7 17C7 15.895 6.105 15 5 15ZM15 15C15 13.895 15.895 13 17 13C18.105 13 19 13.895 19 15C19 16.105 18.105 17 17 17C15.895 17 15 16.105 15 15Z" fill="#1651B0"/>
<path fill-rule="evenodd" clip-rule="evenodd" d="M6.5 3C6.5 2.173 5.827 1.5 5 1.5C4.173 1.5 3.5 2.173 3.5 3C3.5 3.827 4.173 4.5 5 4.5C5.827 4.5 6.5 3.827 6.5 3ZM17 13.5C17.827 13.5 18.5 14.173 18.5 15C18.5 15.827 17.827 16.5 17 16.5C16.173 16.5 15.5 15.827 15.5 15C15.5 14.173 16.173 13.5 17 13.5ZM5 15.5C5.827 15.5 6.5 16.173 6.5 17C6.5 17.827 5.827 18.5 5 18.5C4.173 18.5 3.5 17.827 3.5 17C3.5 16.173 4.173 15.5 5 15.5Z" fill="white"/>
<path d="M8 10.5H9.5V12H10.5V10.5H12V9.5H10.5V8H9.5V9.5H8V10.5Z" fill="#333333"/>
</svg>
