<svg fill="none" height="10" viewBox="0 0 10 10" width="10" xmlns="http://www.w3.org/2000/svg"><path clip-rule="evenodd" d="m5 9c2.20914 0 4-1.79086 4-4s-1.79086-4-4-4v.5c1.933 0 3.5 1.567 3.5 3.5s-1.567 3.5-3.5 3.5z" fill="#333" fill-rule="evenodd"/><path d="m1 1h4v.5h-4z" fill="#1651b0"/><path clip-rule="evenodd" d="m4 1.5c0-.5525.4475-1 1-1s1 .4475 1 1-.4475 1-1 1-1-.4475-1-1zm0 7c0-.5525.4475-1 1-1s1 .4475 1 1-.4475 1-1 1-1-.4475-1-1z" fill="#1651b0" fill-rule="evenodd"/><path clip-rule="evenodd" d="m5.75 1.5c0-.4135-.3365-.75-.75-.75s-.75.3365-.75.75.3365.75.75.75.75-.3365.75-.75zm0 7c0-.4135-.3365-.75-.75-.75s-.75.3365-.75.75.3365.75.75.75.75-.3365.75-.75z" fill="#fff" fill-rule="evenodd"/><path d="m4 5.25h.75v.75h.5v-.75h.75v-.5h-.75v-.75h-.5v.75h-.75z" fill="#333"/></svg>