<svg xmlns="http://www.w3.org/2000/svg" width="20" height="20" viewBox="0 0 20 20">
  <g fill="none" fill-rule="evenodd">
    <rect width="20" height="20"/>
    <g transform="translate(2 2)">
      <path stroke="#333" stroke-linecap="round" stroke-width="1.5" d="M15.5,2.437 C15.5,6.257 13.326,9.347 8,9.347 C2.826,9.347 0.5,11.781 0.5,15.562"/>
      <path fill="#FFF" d="M9.5,9 C9.5,8.172 8.828,7.5 8,7.5 C7.172,7.5 6.5,8.172 6.5,9 C6.5,9.828 7.172,10.5 8,10.5 C8.828,10.5 9.5,9.828 9.5,9"/>
      <path fill="#1C75BC" d="M8 11.25C6.76 11.25 5.75 10.241 5.75 9 5.75 7.759 6.76 6.75 8 6.75 9.24 6.75 10.25 7.759 10.25 9 10.25 10.241 9.24 11.25 8 11.25L8 11.25zM8 7.5C7.173 7.5 6.5 8.173 6.5 9 6.5 9.827 7.173 10.5 8 10.5 8.827 10.5 9.5 9.827 9.5 9 9.5 8.173 8.827 7.5 8 7.5L8 7.5zM4 2L6 2 6 4 4 4 4 6 2 6 2 4 0 4 0 2 2 2 2 0 4 0 4 2z"/>
    </g>
  </g>
</svg>
